<svg width="54" height="54" viewBox="0 0 54 54" fill="none" xmlns="http://www.w3.org/2000/svg">
<rect x="0.5" y="0.5" width="53" height="53" rx="15.5" fill="#3773D5"/>
<rect x="0.5" y="0.5" width="53" height="53" rx="15.5" stroke="#13294D"/>
<g clip-path="url(#clip0_1_2)">
<path d="M21 43C11 46 11 38 7 37M35 49V41.26C35.075 40.3063 34.9462 39.3476 34.622 38.4476C34.2979 37.5476 33.7859 36.7268 33.12 36.04C39.4 35.34 46 32.96 46 22.04C45.9995 19.2477 44.9254 16.5624 43 14.54C43.9117 12.097 43.8472 9.3967 42.82 7C42.82 7 40.46 6.3 35 9.96C30.416 8.71764 25.584 8.71764 21 9.96C15.54 6.3 13.18 7 13.18 7C12.1528 9.3967 12.0883 12.097 13 14.54C11.0603 16.5774 9.98505 19.2869 10 22.1C10 32.94 16.6 35.32 22.88 36.1C22.222 36.7799 21.7145 37.5908 21.3906 38.4798C21.0667 39.3689 20.9336 40.3161 21 41.26V49" stroke="#13294D" stroke-width="4" stroke-linecap="round" stroke-linejoin="round"/>
</g>
<defs>
<clipPath id="clip0_1_2">
<rect width="48" height="48" fill="white" transform="translate(3 5)"/>
</clipPath>
</defs>
</svg>
