<svg width="54" height="54" viewBox="0 0 54 54" fill="none" xmlns="http://www.w3.org/2000/svg">
<rect x="0.5" y="0.5" width="53" height="53" rx="15.5" fill="#3773D5"/>
<rect x="0.5" y="0.5" width="53" height="53" rx="15.5" stroke="#13294D"/>
<path d="M38 16H38.02M17 7H37C42.5228 7 47 11.4772 47 17V37C47 42.5228 42.5228 47 37 47H17C11.4772 47 7 42.5228 7 37V17C7 11.4772 11.4772 7 17 7ZM35 25.74C35.2468 27.4045 34.9625 29.1044 34.1875 30.598C33.4125 32.0916 32.1863 33.3028 30.6833 34.0593C29.1802 34.8159 27.4769 35.0792 25.8156 34.8119C24.1543 34.5445 22.6195 33.7602 21.4297 32.5703C20.2398 31.3805 19.4555 29.8457 19.1881 28.1844C18.9208 26.5231 19.1841 24.8198 19.9407 23.3167C20.6972 21.8137 21.9084 20.5875 23.402 19.8125C24.8956 19.0375 26.5955 18.7532 28.26 19C29.9578 19.2518 31.5297 20.0429 32.7434 21.2566C33.9571 22.4703 34.7482 24.0422 35 25.74Z" stroke="#13294D" stroke-width="4" stroke-linecap="round" stroke-linejoin="round"/>
</svg>
